<svg width="40" height="40" viewBox="0 0 40 40" fill="none" xmlns="http://www.w3.org/2000/svg">
<circle cx="20" cy="20" r="20" fill="#2B7AF1"/>
<path d="M29 13.819C29 12.3215 27.6788 11.0003 26.1813 11.0003H14.8186C13.3212 11.0003 12 12.3215 12 13.819V25.1816C12 26.6791 13.3212 28.0003 14.8186 28.0003H20.544V21.5703H18.4301V18.7516H20.544V17.6065C20.544 15.6687 21.9534 13.9951 23.715 13.9951H26.0052V16.8138H23.715C23.4508 16.8138 23.1865 17.078 23.1865 17.6065V18.7516H26.0052V21.5703H23.1865V28.0003H26.1813C27.6788 28.0003 29 26.6791 29 25.1816V13.819Z" fill="white"/>
</svg>
