<svg width="80" height="80" viewBox="0 0 80 80" fill="none" xmlns="http://www.w3.org/2000/svg">
<g clip-path="url(#clip0_25_1519)">
<path d="M72.8741 13.8142C61.8671 10.7983 50.7954 6.10221 40.8559 0.233789C40.3279 -0.0779295 39.6728 -0.0779295 39.145 0.233789C28.9187 6.27081 18.4453 10.7128 7.12582 13.8142C6.39457 14.0144 5.8877 14.6791 5.8877 15.4374V32.632C5.8877 50.3387 14.0563 62.0593 20.9091 68.7735C28.2866 76.0024 36.8803 80 40.0004 80C43.1203 80 51.714 76.0024 59.0915 68.7735C65.9441 62.0595 74.1123 50.3388 74.1123 32.632V15.4372C74.1123 14.6791 73.6054 14.0144 72.8741 13.8142ZM70.7466 32.6319C70.7466 49.1698 63.1277 60.1065 56.7359 66.3693C49.481 73.4779 41.7243 76.6341 40.0004 76.6341C38.2765 76.6341 30.5194 73.4779 23.2644 66.3693C16.8727 60.1063 9.25347 49.1698 9.25347 32.6319V16.7147C20.0781 13.6413 30.1591 9.35205 40.0008 3.63284C49.5967 9.20033 60.1806 13.7028 70.7466 16.7141V32.6319Z" fill="#2B7AF1"/>
<path d="M25.0837 16.5265C24.7431 15.6617 23.7661 15.2368 22.9011 15.5776C19.8948 16.7621 16.8092 17.8524 13.73 18.8184C13.0283 19.0387 12.5508 19.6887 12.5508 20.424V26.9226C12.5508 27.8519 13.3044 28.6054 14.2336 28.6054C15.1628 28.6054 15.9164 27.8519 15.9164 26.9226V21.6538C18.6787 20.7601 21.4381 19.7715 24.1348 18.7088C24.9997 18.3684 25.4245 17.3913 25.0837 16.5265Z" fill="#2B7AF1"/>
<path d="M28.2804 16.8456C28.5062 16.8456 28.7354 16.8001 28.9552 16.7042L28.9862 16.6907C29.8376 16.3176 30.221 15.3265 29.8479 14.4754C29.4745 13.624 28.4777 13.2389 27.6273 13.6117L27.6001 13.6234C26.7482 13.9954 26.3635 14.9857 26.7356 15.8373C27.0117 16.4695 27.6312 16.8456 28.2804 16.8456Z" fill="url(#paint0_linear_25_1519)"/>
<path d="M60.0504 54.263C59.2727 53.7547 58.2299 53.9733 57.721 54.7512C56.3343 56.8737 54.7074 58.9062 52.8849 60.7917C51.3862 62.342 49.7621 63.787 48.0579 65.0862C47.319 65.6497 47.1768 66.7056 47.7401 67.4448C48.0715 67.879 48.5726 68.1075 49.0795 68.1075C49.4354 68.1075 49.794 67.9951 50.0987 67.7626C51.937 66.3609 53.6885 64.8026 55.3044 63.1311C57.2749 61.093 59.0358 58.893 60.5387 56.5922C61.0472 55.8141 60.8283 54.7712 60.0504 54.263Z" fill="#2B7AF1"/>
<path d="M44.1495 67.7254L44.053 67.7823C43.2488 68.2481 42.9739 69.2774 43.4395 70.0817C43.7516 70.6207 44.3164 70.9217 44.8975 70.9217C45.1834 70.9217 45.4737 70.8487 45.7389 70.6948L45.8503 70.6293C46.6523 70.1596 46.9217 69.1289 46.452 68.3268C45.982 67.5251 44.9511 67.2562 44.1495 67.7254Z" fill="url(#paint1_linear_25_1519)"/>
<path d="M28.5291 36.5654C27.4958 35.5319 26.1216 34.9632 24.6601 34.9632C23.1985 34.9632 21.8241 35.5321 20.7904 36.5654C18.6571 38.6991 18.6571 42.171 20.7904 44.3046L30.7272 54.2411C31.7607 55.2742 33.1349 55.8431 34.5966 55.8431C36.0583 55.8431 37.4325 55.2742 38.4661 54.2408L59.21 33.4968C61.3431 31.3626 61.3431 27.8912 59.2097 25.7582C58.1763 24.7248 56.802 24.156 55.3402 24.156C53.8784 24.156 52.5042 24.7249 51.4706 25.7582L34.5965 42.6324L28.5291 36.5654ZM53.8506 28.1382C54.2483 27.7405 54.7775 27.5216 55.3403 27.5216C55.9034 27.5216 56.4322 27.7405 56.8302 28.1382C57.6513 28.9593 57.6513 30.2958 56.8298 31.1172L36.0863 51.861C35.6886 52.2586 35.1594 52.4775 34.5966 52.4775C34.0338 52.4775 33.5046 52.2586 33.1068 51.861L23.1702 41.9247C22.3488 41.1033 22.3488 39.7668 23.1699 38.9457C23.5677 38.548 24.0969 38.3288 24.6599 38.3288C25.2229 38.3288 25.7518 38.5477 26.1494 38.9454L33.4065 46.2025C33.7222 46.518 34.15 46.6953 34.5965 46.6953C35.0429 46.6953 35.4707 46.5182 35.7861 46.2025L53.8506 28.1382Z" fill="url(#paint2_linear_25_1519)"/>
</g>
<defs>
<linearGradient id="paint0_linear_25_1519" x1="26.5937" y1="15.1575" x2="29.9912" y2="15.1437" gradientUnits="userSpaceOnUse">
<stop stop-color="#FF7A00"/>
<stop offset="1" stop-color="#FFB039"/>
</linearGradient>
<linearGradient id="paint1_linear_25_1519" x1="43.2129" y1="69.2081" x2="46.6836" y2="69.194" gradientUnits="userSpaceOnUse">
<stop stop-color="#FF7A00"/>
<stop offset="1" stop-color="#FFB039"/>
</linearGradient>
<linearGradient id="paint2_linear_25_1519" x1="19.1904" y1="39.9996" x2="60.817" y2="39.7789" gradientUnits="userSpaceOnUse">
<stop stop-color="#FF7A00"/>
<stop offset="1" stop-color="#FFB039"/>
</linearGradient>
<clipPath id="clip0_25_1519">
<rect width="80" height="80" fill="white"/>
</clipPath>
</defs>
</svg>
