<svg width="80" height="80" viewBox="0 0 80 80" fill="none" xmlns="http://www.w3.org/2000/svg">
<g clip-path="url(#clip0_25_1631)">
<path d="M53.4307 51.3058C51.5352 51.3058 49.9932 49.9711 49.9932 48.3306C49.9932 46.69 51.5352 45.3553 53.4307 45.3553C55.3261 45.3553 56.8681 46.69 56.8681 48.3306C56.8681 49.1934 57.5678 49.8931 58.4306 49.8931C59.2935 49.8931 59.9931 49.1934 59.9931 48.3306C59.9931 45.4673 57.8597 43.0598 54.9931 42.4064V41.5937C54.9931 40.7309 54.2935 40.0312 53.4307 40.0312C52.5678 40.0312 51.8682 40.7309 51.8682 41.5937V42.4064C49.0016 43.0598 46.8682 45.4673 46.8682 48.3306C46.8682 51.6942 49.8121 54.4308 53.4307 54.4308C55.3261 54.4308 56.8681 55.7654 56.8681 57.4061C56.8681 59.0467 55.3261 60.3814 53.4307 60.3814C51.5352 60.3814 49.9932 59.0467 49.9932 57.4061C49.9932 56.5433 49.2935 55.8436 48.4307 55.8436C47.5679 55.8436 46.8682 56.5433 46.8682 57.4061C46.8682 60.2693 49.0016 62.6768 51.8682 63.3303V64.0053C51.8682 64.8681 52.5678 65.5678 53.4307 65.5678C54.2935 65.5678 54.9931 64.8681 54.9931 64.0053V63.3303C57.8597 62.6768 59.9931 60.2693 59.9931 57.4061C59.9931 54.0423 57.0492 51.3058 53.4307 51.3058Z" fill="url(#paint0_linear_25_1631)"/>
<path d="M70.5442 42.0118C68.5031 38.8313 65.6275 36.2863 62.2282 34.6523C61.4503 34.2782 60.5167 34.6057 60.1429 35.3835C59.769 36.1613 60.0964 37.0948 60.8742 37.4687C66.7978 40.3162 70.6251 46.4004 70.6251 52.9688C70.6251 55.7794 69.9323 58.5668 68.6218 61.0299C68.2165 61.7916 68.5054 62.7379 69.2673 63.1432C69.501 63.2675 69.7523 63.3266 69.9998 63.3266C70.5589 63.3266 71.0996 63.0257 71.3806 62.4977C72.9307 59.5846 73.7501 56.2894 73.7501 52.9688C73.7501 49.0688 72.6415 45.2799 70.5442 42.0118Z" fill="#2B7AF1"/>
<path d="M55.8864 32.6564L55.7813 32.6562C54.9184 32.6562 54.2188 33.3558 54.2188 34.2187C54.2188 35.0817 54.9184 35.7812 55.7813 35.7812L55.8717 35.7814C55.8742 35.7814 55.8766 35.7814 55.8792 35.7814C56.7388 35.7814 57.4375 35.0867 57.4416 34.2262C57.4455 33.3633 56.7492 32.6605 55.8864 32.6564Z" fill="url(#paint1_linear_25_1631)"/>
<path d="M46.0008 68.469C40.0773 65.6213 36.25 59.5371 36.25 52.9688C36.25 50.1582 36.9428 47.3709 38.2533 44.9078C38.6586 44.146 38.3697 43.1998 37.6078 42.7945C36.8462 42.3892 35.8997 42.6781 35.4945 43.44C33.9444 46.3532 33.125 49.6482 33.125 52.9688C33.125 56.8688 34.2336 60.6576 36.3309 63.9259C38.372 67.1063 41.2476 69.6513 44.6469 71.2855C44.8651 71.3905 45.0958 71.4401 45.3228 71.4401C45.9047 71.4401 46.4631 71.1136 46.7322 70.5543C47.1058 69.7765 46.7786 68.8429 46.0008 68.469Z" fill="#2B7AF1"/>
<path d="M51.0936 70.1563L51.0031 70.156C50.1363 70.1544 49.4375 70.848 49.4336 71.7112C49.4295 72.5741 50.1261 73.277 50.9889 73.281L51.0936 73.2813C51.9564 73.2813 52.6561 72.5816 52.6561 71.7188C52.6561 70.856 51.9564 70.1563 51.0936 70.1563Z" fill="url(#paint2_linear_25_1631)"/>
<path d="M60.5325 27.3699C60.3424 26.9168 60.1094 26.4898 59.8383 26.0937H63.9061C67.8692 26.0937 71.0936 22.8693 71.0936 18.9062C71.0936 14.9431 67.8692 11.7187 63.9061 11.7187H51.3937C52.1891 10.5622 52.6562 9.16295 52.6562 7.65624C52.6562 3.69312 49.4318 0.46875 45.4687 0.46875H7.18749C3.22437 0.46875 0 3.69312 0 7.65624C0 11.6194 3.22437 14.8437 7.18749 14.8437H19.7C18.9045 16.0003 18.4375 17.3995 18.4375 18.9062C18.4375 20.4129 18.9043 21.8121 19.7 22.9687H15.625C11.6619 22.9687 8.43748 26.1931 8.43748 30.1562C8.43748 32.4323 9.50217 34.4634 11.1586 35.7812C9.50217 37.099 8.43748 39.1301 8.43748 41.4062C8.43748 43.6823 9.50217 45.7134 11.1586 47.0312C9.50217 48.349 8.43748 50.3801 8.43748 52.6562C8.43748 54.9322 9.50217 56.9633 11.1586 58.2811C9.50217 59.5989 8.43748 61.63 8.43748 63.9061C8.43748 67.8692 11.6619 71.0936 15.625 71.0936H34.039C38.8899 76.2822 45.7909 79.5313 53.4376 79.5313C68.0841 79.5313 80 67.6153 80 52.9688C80 40.7787 71.7453 30.4817 60.5325 27.3699ZM63.9061 14.8437C66.1463 14.8437 67.9686 16.6662 67.9686 18.9062C67.9686 21.1462 66.1463 22.9687 63.9061 22.9687H53.9061H25.625C23.3848 22.9687 21.5625 21.1462 21.5625 18.9062C21.5625 16.6662 23.3848 14.8437 25.625 14.8437H63.9061ZM7.18749 11.7187C4.94733 11.7187 3.12499 9.89623 3.12499 7.65624C3.12499 5.41624 4.94733 3.59374 7.18749 3.59374H45.4687C47.7088 3.59374 49.5312 5.41624 49.5312 7.65624C49.5312 9.89623 47.7088 11.7187 45.4687 11.7187H7.18749ZM15.625 26.0937H53.9061C54.5355 26.0937 55.1382 26.24 55.6788 26.5018C54.9397 26.4398 54.1926 26.4064 53.4376 26.4064C46.1024 26.4064 39.4524 29.3953 34.6409 34.2187H15.625C13.385 34.2187 11.5625 32.3962 11.5625 30.1562C11.5625 27.9162 13.385 26.0937 15.625 26.0937ZM15.625 37.3437H31.971C30.1973 39.7738 28.8259 42.5148 27.9549 45.4687H15.625C13.3848 45.4687 11.5625 43.6463 11.5625 41.4062C11.5625 39.1662 13.3848 37.3437 15.625 37.3437ZM15.625 48.5937H27.2374C27.0004 50.0176 26.8751 51.4787 26.8751 52.9688C26.8751 54.2416 26.9671 55.4932 27.141 56.7186H15.625C13.3848 56.7186 11.5625 54.8963 11.5625 52.6562C11.5625 50.416 13.3848 48.5937 15.625 48.5937ZM15.625 67.9686C13.3848 67.9686 11.5625 66.1463 11.5625 63.9061C11.5625 61.666 13.3848 59.8436 15.625 59.8436H27.779C28.5674 62.7832 29.8482 65.5227 31.5279 67.9686H15.625ZM53.4376 76.4063C40.5141 76.4063 30.0001 65.8922 30.0001 52.9688C30.0001 40.0454 40.5141 29.5314 53.4376 29.5314C66.361 29.5314 76.875 40.0454 76.875 52.9688C76.875 65.8922 66.361 76.4063 53.4376 76.4063Z" fill="#2B7AF1"/>
</g>
<defs>
<linearGradient id="paint0_linear_25_1631" x1="46.8682" y1="52.7995" x2="59.9957" y2="52.7723" gradientUnits="userSpaceOnUse">
<stop stop-color="#FF7A00"/>
<stop offset="1" stop-color="#FFB039"/>
</linearGradient>
<linearGradient id="paint1_linear_25_1631" x1="54.2187" y1="34.2188" x2="57.4422" y2="34.2054" gradientUnits="userSpaceOnUse">
<stop stop-color="#FF7A00"/>
<stop offset="1" stop-color="#FFB039"/>
</linearGradient>
<linearGradient id="paint2_linear_25_1631" x1="49.4336" y1="71.7187" x2="52.6567" y2="71.7053" gradientUnits="userSpaceOnUse">
<stop stop-color="#FF7A00"/>
<stop offset="1" stop-color="#FFB039"/>
</linearGradient>
<clipPath id="clip0_25_1631">
<rect width="80" height="80" fill="white"/>
</clipPath>
</defs>
</svg>
