<svg width="40" height="41" viewBox="0 0 40 41" fill="none" xmlns="http://www.w3.org/2000/svg">
<circle cx="20" cy="20.1077" r="20" fill="#2B7AF1"/>
<path d="M22.7058 23.425L24.1058 22.025C24.2943 21.8388 24.5329 21.7113 24.7925 21.6581C25.0521 21.6048 25.3216 21.6281 25.5683 21.725L27.2745 22.4063C27.5238 22.5074 27.7375 22.6801 27.8888 22.9026C28.04 23.125 28.1221 23.3873 28.1245 23.6563V26.7813C28.1231 26.9643 28.0846 27.1451 28.0115 27.3128C27.9383 27.4805 27.8319 27.6317 27.6988 27.7573C27.5657 27.8828 27.4085 27.9801 27.2368 28.0433C27.065 28.1065 26.8823 28.1343 26.6995 28.125C14.7433 27.3813 12.3308 17.2563 11.8745 13.3813C11.8534 13.191 11.8727 12.9984 11.9313 12.8161C11.9899 12.6338 12.0865 12.466 12.2146 12.3237C12.3427 12.1815 12.4995 12.0679 12.6746 11.9906C12.8498 11.9132 13.0393 11.8739 13.2308 11.875H16.2495C16.5189 11.8758 16.7819 11.9572 17.0047 12.1087C17.2274 12.2601 17.3998 12.4748 17.4995 12.725L18.1808 14.4313C18.2809 14.6769 18.3065 14.9467 18.2543 15.2068C18.202 15.4669 18.0743 15.7058 17.887 15.8938L16.487 17.2938C16.487 17.2938 17.2933 22.75 22.7058 23.425Z" fill="white"/>
</svg>
