<svg width="80" height="80" viewBox="0 0 80 80" fill="none" xmlns="http://www.w3.org/2000/svg">
<g clip-path="url(#clip0_25_1575)">
<path d="M79.8458 43.6954C79.1275 36.4706 75.8998 29.6594 70.7569 24.5164C66.3618 20.1215 60.9824 17.2972 55.322 16.0414V12.0713C57.6339 11.4962 59.3523 9.40348 59.3523 6.9161C59.3523 3.98668 56.9692 1.60352 54.0398 1.60352H42.7896C39.8602 1.60352 37.477 3.98668 37.477 6.9161C37.477 9.40333 39.1955 11.496 41.5072 12.0713V16.0525C35.8642 17.3136 30.5025 20.134 26.1199 24.5165C25.1609 25.4756 24.2765 26.4817 23.4669 27.5274C23.4277 27.5244 23.3885 27.5214 23.3485 27.5214H12.2138C11.351 27.5214 10.6513 28.221 10.6513 29.0839C10.6513 29.9469 11.351 30.6465 12.2138 30.6465H21.3408C20.1952 32.5645 19.2714 34.5787 18.5683 36.6522H1.56252C0.699698 36.6522 0 37.3517 0 38.2147C0 39.0777 0.699698 39.7772 1.56252 39.7772H17.6853C17.235 41.754 16.9765 43.7657 16.9098 45.7831H10.0002C9.13733 45.7831 8.43763 46.4827 8.43763 47.3456C8.43763 48.2086 9.13733 48.9082 10.0002 48.9082H16.9596C17.0915 50.9307 17.4167 52.9426 17.9353 54.914H7.81262C6.9498 54.914 6.2501 55.6136 6.2501 56.4766C6.2501 57.3395 6.9498 58.0391 7.81262 58.0391H18.9325C20.4653 62.094 22.8608 65.8945 26.1199 69.1536C31.2678 74.3015 38.0861 77.53 45.3184 78.2446C46.3506 78.3464 47.3836 78.3969 48.4151 78.3969C54.5124 78.3969 60.5322 76.6323 65.6401 73.306C66.3632 72.8351 66.5678 71.8671 66.0968 71.144C65.6259 70.4208 64.6579 70.2163 63.9347 70.6872C52.7538 77.9681 37.7797 76.3939 28.3297 66.9439C17.2417 55.8559 17.2417 37.8146 28.3297 26.7264C39.4175 15.6386 57.4589 15.6386 68.547 26.7264C77.9845 36.1641 79.5673 51.1254 72.3105 62.3009C71.8405 63.0246 72.0463 63.9925 72.7699 64.4623C73.494 64.9323 74.4615 64.7265 74.9313 64.0028C78.8086 58.0316 80.5539 50.8198 79.8458 43.6954ZM40.602 6.91625C40.602 5.70999 41.5833 4.72872 42.7896 4.72872H54.0398C55.246 4.72872 56.2273 5.70999 56.2273 6.91625C56.2273 8.12252 55.246 9.10379 54.0398 9.10379H53.7594H43.0697H42.7896C41.5833 9.10379 40.602 8.12237 40.602 6.91625ZM44.6323 15.5153V12.2288H52.1969V15.5097C49.685 15.2109 47.1437 15.2128 44.6323 15.5153Z" fill="#2B7AF1"/>
<path d="M69.6523 66.4856C69.2398 66.4856 68.8383 66.6528 68.5478 66.9434C68.2556 67.234 68.0898 67.6372 68.0898 68.0481C68.0898 68.459 68.2556 68.8622 68.5478 69.1528C68.8383 69.445 69.24 69.6106 69.6523 69.6106C70.0633 69.6106 70.4648 69.445 70.757 69.1528C71.0477 68.8622 71.2148 68.459 71.2148 68.0481C71.2148 67.6372 71.0478 67.234 70.757 66.9434C70.4648 66.6528 70.0631 66.4856 69.6523 66.4856Z" fill="url(#paint0_linear_25_1575)"/>
<path d="M48.4385 22.5957C35.073 22.5957 24.1992 33.4693 24.1992 46.835C24.1992 60.2007 35.073 71.0743 48.4385 71.0743C61.804 71.0743 72.6778 60.2007 72.6778 46.835C72.6778 33.4693 61.804 22.5957 48.4385 22.5957ZM48.4385 67.9492C36.796 67.9492 27.3243 58.4774 27.3243 46.835C27.3243 35.1926 36.796 25.7208 48.4385 25.7208C60.081 25.7208 69.5527 35.1926 69.5527 46.835C69.5527 58.4774 60.081 67.9492 48.4385 67.9492Z" fill="url(#paint1_linear_25_1575)"/>
<path d="M58.3219 34.7413L50.5827 42.4803C49.9355 42.1603 49.2075 41.9796 48.438 41.9796C47.6683 41.9796 46.9405 42.1603 46.2933 42.4803L42.8296 39.0167C42.2193 38.4065 41.2302 38.4065 40.6197 39.0167C40.0096 39.6269 40.0096 40.6163 40.6197 41.2264L44.0834 44.6901C43.7632 45.3373 43.5826 46.0652 43.5826 46.8348C43.5826 49.512 45.7606 51.6902 48.438 51.6902C51.1154 51.6902 53.2934 49.512 53.2934 46.8348C53.2934 46.0652 53.1126 45.3373 52.7926 44.6901L60.3046 37.1781L60.5316 36.951C61.1418 36.3409 61.1418 35.3515 60.5316 34.7413C59.9214 34.1311 58.9324 34.1311 58.3219 34.7413ZM48.438 48.5653C47.4839 48.5653 46.7076 47.789 46.7076 46.8349C46.7076 45.8809 47.4839 45.1046 48.438 45.1046C49.3921 45.1046 50.1683 45.8809 50.1683 46.8349C50.1683 47.789 49.3921 48.5653 48.438 48.5653Z" fill="#2B7AF1"/>
<path d="M65.1449 45.2915H63.6973C62.8345 45.2915 62.1348 45.991 62.1348 46.854C62.1348 47.717 62.8345 48.4165 63.6973 48.4165H65.1449C66.0077 48.4165 66.7074 47.717 66.7074 46.854C66.7074 45.991 66.0077 45.2915 65.1449 45.2915Z" fill="#2B7AF1"/>
<path d="M33.1799 45.2532H31.7324C30.8696 45.2532 30.1699 45.9527 30.1699 46.8157C30.1699 47.6786 30.8696 48.3782 31.7324 48.3782H33.1799C34.0427 48.3782 34.7424 47.6786 34.7424 46.8157C34.7424 45.9527 34.0427 45.2532 33.1799 45.2532Z" fill="#2B7AF1"/>
<path d="M48.457 33.1384C49.3198 33.1384 50.0195 32.4389 50.0195 31.5759V30.1284C50.0195 29.2654 49.3198 28.5659 48.457 28.5659C47.5942 28.5659 46.8945 29.2654 46.8945 30.1284V31.5759C46.8945 32.4389 47.5942 33.1384 48.457 33.1384Z" fill="#2B7AF1"/>
<path d="M48.4189 60.5312C47.5561 60.5312 46.8564 61.2308 46.8564 62.0937V63.5412C46.8564 64.4042 47.5561 65.1037 48.4189 65.1037C49.2818 65.1037 49.9814 64.4042 49.9814 63.5412V62.0937C49.9814 61.2308 49.2818 60.5312 48.4189 60.5312Z" fill="#2B7AF1"/>
<path d="M1.5625 54.9136C1.15156 54.9136 0.748438 55.0808 0.457813 55.3714C0.167188 55.662 0 56.0651 0 56.4761C0 56.8886 0.167031 57.2901 0.457813 57.5808C0.748594 57.8714 1.15156 58.0386 1.5625 58.0386C1.97344 58.0386 2.37656 57.8714 2.66703 57.5808C2.95766 57.2901 3.125 56.887 3.125 56.4761C3.125 56.0651 2.95781 55.662 2.66703 55.3714C2.37656 55.0808 1.97344 54.9136 1.5625 54.9136Z" fill="url(#paint2_linear_25_1575)"/>
</g>
<defs>
<linearGradient id="paint0_linear_25_1575" x1="68.0898" y1="68.0481" x2="71.2154" y2="68.0355" gradientUnits="userSpaceOnUse">
<stop stop-color="#FF7A00"/>
<stop offset="1" stop-color="#FFB039"/>
</linearGradient>
<linearGradient id="paint1_linear_25_1575" x1="24.1992" y1="46.835" x2="72.6868" y2="46.6393" gradientUnits="userSpaceOnUse">
<stop stop-color="#FF7A00"/>
<stop offset="1" stop-color="#FFB039"/>
</linearGradient>
<linearGradient id="paint2_linear_25_1575" x1="-2.34286e-08" y1="56.4761" x2="3.12558" y2="56.4635" gradientUnits="userSpaceOnUse">
<stop stop-color="#FF7A00"/>
<stop offset="1" stop-color="#FFB039"/>
</linearGradient>
<clipPath id="clip0_25_1575">
<rect width="80" height="80" fill="white"/>
</clipPath>
</defs>
</svg>
