<svg width="40" height="41" viewBox="0 0 40 41" fill="none" xmlns="http://www.w3.org/2000/svg">
<circle cx="20" cy="20.3545" r="20" fill="#2B7AF1"/>
<path d="M29.8065 25.4697C29.8065 25.3867 29.7235 25.3867 29.7235 25.3037C29.3914 24.6395 28.6442 23.8093 27.6479 22.896C27.1498 22.4809 26.9007 22.1488 26.7346 21.9828C26.4856 21.6507 26.4856 21.4016 26.5686 21.0695C26.6516 20.8205 26.9837 20.4053 27.5649 19.6581C27.897 19.243 28.063 18.994 28.3121 18.7449C29.5574 17.0844 30.1386 16.0051 29.9725 15.507L29.8895 15.424C29.8065 15.341 29.7235 15.2579 29.5574 15.2579C29.3914 15.1749 29.1423 15.1749 28.8932 15.2579H25.7384C25.6554 15.2579 25.6553 15.2579 25.4893 15.2579C25.4063 15.2579 25.3233 15.2579 25.3233 15.2579H25.2402H25.1572L25.0742 15.341C24.9912 15.424 24.9912 15.424 24.9912 15.507C24.6591 16.4202 24.244 17.1675 23.8288 17.9977C23.5798 18.4128 23.3307 18.8279 23.0816 19.16C22.8326 19.4921 22.6665 19.7412 22.5005 19.9072C22.3344 20.0733 22.1684 20.1563 22.0854 20.3223C22.0023 20.4053 21.8363 20.4884 21.8363 20.4054C21.7533 20.4054 21.6702 20.4053 21.6702 20.3223C21.5872 20.2393 21.5042 20.1563 21.4212 20.0733C21.3382 19.9902 21.3382 19.8242 21.2551 19.6581C21.2551 19.4921 21.2551 19.326 21.2551 19.243C21.2551 19.16 21.2551 18.9109 21.2551 18.7449C21.2551 18.4958 21.2551 18.3298 21.2551 18.2468C21.2551 17.9977 21.2551 17.6656 21.2551 17.3335C21.2551 17.0014 21.2551 16.7523 21.2551 16.5863C21.2551 16.4202 21.2551 16.1712 21.2551 16.0051C21.2551 15.7561 21.2551 15.59 21.2551 15.507C21.2551 15.424 21.1721 15.2579 21.1721 15.1749C21.0891 15.0919 21.0061 15.0089 20.923 14.9258C20.84 14.8428 20.674 14.8428 20.591 14.7598C20.1758 14.6768 19.6777 14.5938 19.0966 14.5938C17.7682 14.5938 16.8549 14.6768 16.5228 14.8428C16.3568 14.9258 16.1907 15.0089 16.1077 15.1749C15.9417 15.341 15.9417 15.424 16.0247 15.424C16.4398 15.507 16.7719 15.673 16.938 15.9221L17.021 16.0882C17.104 16.1712 17.104 16.3372 17.187 16.5863C17.27 16.8354 17.27 17.0844 17.27 17.4165C17.27 17.9147 17.27 18.4128 17.27 18.7449C17.27 19.16 17.187 19.4091 17.187 19.6581C17.187 19.9072 17.104 20.0733 17.021 20.1563C16.938 20.3223 16.9379 20.4054 16.8549 20.4054C16.8549 20.4054 16.8549 20.4884 16.7719 20.4884C16.6889 20.4884 16.6059 20.5714 16.4398 20.5714C16.3568 20.5714 16.1907 20.4884 16.1077 20.4054C15.9417 20.3223 15.7756 20.1563 15.6926 19.9902C15.5266 19.8242 15.3605 19.5751 15.1945 19.243C15.0284 18.9109 14.7793 18.5788 14.6133 18.0807L14.4473 17.7486C14.3642 17.5826 14.1982 17.2505 14.0321 16.8354C13.8661 16.4203 13.7001 16.0882 13.534 15.6731C13.451 15.507 13.368 15.424 13.2849 15.341H13.2019C13.2019 15.341 13.1189 15.2579 13.0359 15.2579C12.9528 15.2579 12.8698 15.1749 12.7868 15.1749H9.79798C9.46588 15.1749 9.29984 15.2579 9.21682 15.341L9.13379 15.424C9.13379 15.424 9.13379 15.507 9.13379 15.59C9.13379 15.673 9.13379 15.7561 9.21682 15.9221C9.63193 16.9184 10.1301 17.9147 10.6282 18.9109C11.1263 19.8242 11.6245 20.6544 11.9566 21.2356C12.3717 21.8167 12.7038 22.3979 13.1189 22.896C13.534 23.3942 13.7831 23.7263 13.8661 23.8923C14.0321 24.0584 14.1152 24.1414 14.1982 24.2244L14.4473 24.4735C14.6133 24.6395 14.8624 24.8886 15.1945 25.1377C15.5266 25.3867 15.9417 25.6358 16.3568 25.8849C16.7719 26.1339 17.27 26.3 17.7682 26.466C18.3493 26.6321 18.8475 26.7151 19.3456 26.6321H20.591C20.84 26.6321 21.0061 26.549 21.1721 26.383L21.2551 26.3C21.2551 26.217 21.3382 26.217 21.3382 26.1339C21.3382 26.0509 21.3382 25.9679 21.3382 25.8018C21.3382 25.4698 21.3382 25.2207 21.4212 24.9716C21.5042 24.7225 21.5042 24.5565 21.5872 24.3905C21.6703 24.2244 21.7533 24.1414 21.8363 24.0584C21.9193 23.9753 22.0024 23.8923 22.0024 23.8923H22.0854C22.2514 23.8093 22.5005 23.8923 22.6665 24.0584C22.9156 24.2244 23.1647 24.4735 23.3307 24.7225C23.4967 24.9716 23.7458 25.2207 24.0779 25.5528C24.41 25.8849 24.6591 26.1339 24.8251 26.217L25.0742 26.383C25.2402 26.466 25.4063 26.5491 25.6554 26.6321C25.9044 26.7151 26.0705 26.7151 26.2365 26.7151L29.0593 26.6321C29.3084 26.6321 29.5574 26.5491 29.7235 26.466C29.8895 26.383 29.9725 26.3 29.9725 26.1339C29.9725 26.0509 29.9725 25.8849 29.9725 25.8018C29.8065 25.6358 29.8065 25.5528 29.8065 25.4697Z" fill="white"/>
</svg>
