<svg width="136" height="54" viewBox="0 0 136 54" fill="none" xmlns="http://www.w3.org/2000/svg">
<rect width="135.79" height="51.4286" rx="10" fill="#2B7AF1"/>
<path d="M27.872 33.216C27.632 33.216 27.374 33.198 27.098 33.162C26.834 33.126 26.552 33.072 26.252 33L26.45 30.084C26.618 30.12 26.78 30.138 26.936 30.138C27.428 30.138 27.8 29.946 28.052 29.562C28.304 29.166 28.478 28.614 28.574 27.906C28.682 27.198 28.748 26.37 28.772 25.422L28.952 20.4H39.104V33H35.594V22.434L36.368 23.226H31.274L31.994 22.398L31.904 25.278C31.868 26.502 31.784 27.606 31.652 28.59C31.52 29.562 31.31 30.396 31.022 31.092C30.734 31.776 30.332 32.304 29.816 32.676C29.312 33.036 28.664 33.216 27.872 33.216ZM46.4072 33.162C45.3392 33.162 44.3912 32.946 43.5632 32.514C42.7352 32.082 42.0812 31.488 41.6012 30.732C41.1332 29.964 40.8992 29.088 40.8992 28.104C40.8992 27.12 41.1332 26.25 41.6012 25.494C42.0812 24.738 42.7352 24.15 43.5632 23.73C44.3912 23.298 45.3392 23.082 46.4072 23.082C47.4752 23.082 48.4232 23.298 49.2512 23.73C50.0912 24.15 50.7452 24.738 51.2132 25.494C51.6812 26.25 51.9152 27.12 51.9152 28.104C51.9152 29.088 51.6812 29.964 51.2132 30.732C50.7452 31.488 50.0912 32.082 49.2512 32.514C48.4232 32.946 47.4752 33.162 46.4072 33.162ZM46.4072 30.444C46.8032 30.444 47.1512 30.354 47.4512 30.174C47.7632 29.994 48.0092 29.73 48.1892 29.382C48.3692 29.022 48.4592 28.596 48.4592 28.104C48.4592 27.612 48.3692 27.198 48.1892 26.862C48.0092 26.514 47.7632 26.25 47.4512 26.07C47.1512 25.89 46.8032 25.8 46.4072 25.8C46.0232 25.8 45.6752 25.89 45.3632 26.07C45.0632 26.25 44.8172 26.514 44.6252 26.862C44.4452 27.198 44.3552 27.612 44.3552 28.104C44.3552 28.596 44.4452 29.022 44.6252 29.382C44.8172 29.73 45.0632 29.994 45.3632 30.174C45.6752 30.354 46.0232 30.444 46.4072 30.444ZM53.5192 33V23.244H61.6912V25.962H56.1832L56.9212 25.224V33H53.5192ZM67.4482 33.162C66.3802 33.162 65.4322 32.946 64.6042 32.514C63.7762 32.082 63.1222 31.488 62.6422 30.732C62.1742 29.964 61.9402 29.088 61.9402 28.104C61.9402 27.12 62.1742 26.25 62.6422 25.494C63.1222 24.738 63.7762 24.15 64.6042 23.73C65.4322 23.298 66.3802 23.082 67.4482 23.082C68.5162 23.082 69.4642 23.298 70.2922 23.73C71.1322 24.15 71.7862 24.738 72.2542 25.494C72.7222 26.25 72.9562 27.12 72.9562 28.104C72.9562 29.088 72.7222 29.964 72.2542 30.732C71.7862 31.488 71.1322 32.082 70.2922 32.514C69.4642 32.946 68.5162 33.162 67.4482 33.162ZM67.4482 30.444C67.8442 30.444 68.1922 30.354 68.4922 30.174C68.8042 29.994 69.0502 29.73 69.2302 29.382C69.4102 29.022 69.5002 28.596 69.5002 28.104C69.5002 27.612 69.4102 27.198 69.2302 26.862C69.0502 26.514 68.8042 26.25 68.4922 26.07C68.1922 25.89 67.8442 25.8 67.4482 25.8C67.0642 25.8 66.7162 25.89 66.4042 26.07C66.1042 26.25 65.8582 26.514 65.6662 26.862C65.4862 27.198 65.3962 27.612 65.3962 28.104C65.3962 28.596 65.4862 29.022 65.6662 29.382C65.8582 29.73 66.1042 29.994 66.4042 30.174C66.7162 30.354 67.0642 30.444 67.4482 30.444ZM76.3866 33V25.206L77.1246 25.962H73.2366V23.244H82.9206V25.962H79.0326L79.7886 25.206V33H76.3866ZM84.2458 33V23.244H87.6478V28.356L91.7338 23.244H94.8838V33H91.4638V27.87L87.4138 33H84.2458ZM97.1833 33V23.244H107.263V33H103.861V25.224L104.617 25.962H99.8473L100.585 25.224V33H97.1833Z" fill="white"/>
</svg>
